<svg xmlns="http://www.w3.org/2000/svg" id="Layer_1" viewBox="0 0 310.7 121"><path fill="#fff" d="M47 105.1c-.2 0-.7-.1-1-.1-.5-.1-.6-.5-.7-1-.1-1-.1-2.7-.1-4.6v-3.7-4.4c.1-.7.1-1.1.7-1.1.2-.1.4-.1.5-.1.2 0 .4-.1.4-.2s-.1-.1-.5-.1c-.7 0-1.8.1-2.3.1s-1.7-.1-2.4-.1c-.2 0-.5.1-.5.1 0 .1.1.2.4.2.1 0 .5 0 .6.1.5.1.6.4.6 1.1.1.6.1 1.2.1 4.4v3.7c0 2.1 0 3.7-.1 4.5-.1.6-.1 1-.6 1.1-.1 0-.4.1-.6.1h-.1c-.2 0-.5-.1-1.1-.2s-.7-.7-.9-2.1l-1.7-13c0-.5-.2-.6-.4-.6s-.4.1-.5.5l-4.9 11.7-5-11.7c-.2-.5-.4-.6-.5-.6s-.4.1-.4.5l-1.8 13.6c-.1.7-.2 1.5-.7 1.6-.2.1-.5.1-.5.1-.1 0-.2 0-.2.1 0-.1-.1-.2-.4-.2-.2 0-.7 0-1.1-.1-.5-.1-1.3-.6-2.3-3.3-1.7-4.5-5.8-17-6.5-18.6-.2-.7-.5-1-.6-1-.2 0-.5.4-.7 1.1l-.1.1-6.6 19.2c-.5 1.5-1 2.6-2.2 2.7h-.7c-.1 0-.4.1-.4.2 0 .2.1.4.5.4 1.3 0 2.8-.1 3-.1.7 0 1.9.1 2.7.1.2 0 .5-.1.5-.4 0-.1 0-.2-.2-.2h-.5c-.7 0-1-.4-1-.9 0-.4.1-1.1.4-1.8l1.3-4.4c0-.1.1-.2.4-.2H14c.1 0 .2.1.2.2l2.1 6.5c.1.4-.1.6-.2.7-.2 0-.4.1-.4.2 0 .2.4.2.7.2 2.1.1 3.9.1 4.9.1.7 0 1 0 1.1-.2 0 .1.1.2.4.2.6 0 1.5-.1 1.8-.1s1.1.1 1.9.1c.2 0 .5-.1.5-.2s-.1-.1-.2-.1-.4-.1-.6-.1c-.4-.1-.6-.2-.6-.6s0-.7.1-1.1l.9-8.2h.1c.5 1.5 1.7 4.1 1.8 4.5.1.6 1.7 3.8 2.1 4.7.2.7.5 1.1.7 1.1s.4-.1.7-1.1l3.9-9.4 1.1 9.1c.1.5 0 .7-.1.9-.1 0-.1.1-.1.1 0 .1.1.2.5.2.7.1 3.3.1 3.9.1h.4c.7 0 1.9-.1 2.3-.1.5 0 1.7.1 2.9.1.2 0 .4-.1.4-.2 0 0-.1-.1-.2-.1zm-33.5-9H8.6c-.1 0-.1-.1-.1-.1l2.3-7.5c.1-.1.1-.1.1-.2.1 0 .1.1.1.2l2.5 7.6c0-.2 0 0 0 0zm44.1 4.8c0 1.6-.5 2.8-1.8 3.9-.9.7-2.1.9-3 .9-1.1 0-2.2-.1-2.9-.5-.2-.1-.4-.2-.4-.7 0-1.1.1-2.3.1-2.7 0-.4.1-.5.2-.5s.1.1.1.2c0 .4.1.7.1 1.1.4 1.6 1.7 2.1 2.9 2.1 1.7 0 2.7-1.1 2.7-2.7 0-.9-.2-1.8-1.8-2.9l-1.1-.7c-2.1-1.5-2.9-2.9-2.9-4.7 0-2.6 2.1-4.3 4.7-4.3 1.1 0 2.1.1 2.6.4.1 0 .2.1.2.2v2.4c0 .5-.1.7-.2.7s-.1-.1-.1-.4c0-.1-.1-.9-.5-1.5-.2-.4-.7-1-2.1-1-1.5.1-2.7.9-2.7 2.3 0 1 .4 1.7 1.9 2.8l.7.5c2.5 1.6 3.3 3.3 3.3 5.1zm16 4.3c0 .1-.1.2-.4.2-1.2 0-2.3-.1-2.9-.1-.5 0-1.7.1-2.4.1-.2 0-.5-.1-.5-.2s.1-.1.4-.1.5-.1.6-.1c.5-.1.5-.5.6-1.1.1-.9.1-2.4.1-4.4v-1.6c0-.1-.1-.1-.1-.1h-6.9c-.1 0-.1.1-.1.1v1.6c0 1.9 0 3.5.1 4.4 0 .6.1 1.1.7 1.1.2 0 .7.1 1 .1.1 0 .2.1.2.1 0 .1-.1.2-.4.2-1.2 0-2.6-.1-3-.1s-1.6.1-2.3.1c-.1 0-.4-.1-.4-.2s.1-.1.4-.1c.2 0 .5-.1.6-.1.4-.1.5-.5.5-1.1.1-.9.1-2.6.1-4.5v-3.7-4.4c0-.7-.1-1-.7-1.1-.1-.1-.5-.1-.7-.1s-.4-.1-.4-.2.1-.1.5-.1c1 0 2.2.1 2.7.1s1.7-.1 2.4-.1c.2 0 .5.1.5.1 0 .1-.1.2-.4.2-.1 0-.4 0-.5.1-.5.1-.6.4-.7 1.1v5c0 .1 0 .1.1.1h6.9c.1 0 .1 0 .1-.1v-.5c0-3.2-.1-3.9-.1-4.5 0-.7-.1-1-.7-1.1-.1-.1-.5-.1-.7-.1-.1 0-.4-.1-.4-.2s.1-.1.5-.1c1 0 2.3.1 2.7.1.5 0 1.7-.1 2.4-.1.2 0 .4.1.4.1 0 .1-.1.2-.4.2-.1 0-.2 0-.5.1-.5.1-.6.4-.7 1.1V99.4c0 1.9 0 3.7.1 4.5.1.6.1 1.1.7 1.1.2 0 .7.1 1 .2 0-.1 0 0 0 0zm19.5-22.9c0 .2-.1.6-.2 1.5 0 .4-.1 2.1-.1 2.4-.1.2-.1.5-.4.5-.1 0-.1-.1-.2-.5 0-.2 0-.7-.1-1.2-.1-.4-.7-.9-1.7-.9l-4.5-.2c-.1 0-.1.1-.1.5V92c0 .1 0 .4.1.4l3.5-.1h1.2c.5-.1.9-.1 1.2-.5.1-.4.2-.4.4-.4s.1.1.1.2-.1 1-.2 1.9c-.1.6-.1 2.1-.1 2.2 0 .4 0 .6-.2.6-.1 0-.2-.1-.2-.5 0-.1 0-.5-.1-1s-.5-1-1.5-1.1h-4c-.1 0-.1 0-.1.2v2.4c0 2.9 0 5.2.1 6.6.1.9.2 1.6 1.1 1.7h1.3c.4 0 .5.1.5.2 0 .2-.1.4-.6.4-1.7 0-3.4-.1-4.1-.1s-2.4.1-3.5.1c-.5 0-.6-.1-.6-.4 0-.1.1-.2.5-.2.5 0 .7 0 1-.1.6-.1.7-.7.7-1.7.1-1.3.1-3.7.1-6.6v-5.4c0-4.7 0-5.5-.1-6.6 0-1.1-.2-1.5-1.1-1.7-.2 0-.7-.1-1.1-.1s-.5 0-.5-.1c0-.2.2-.4.6-.4h2.3c.7.1 1.3.1 1.7.1h7.3c.5-.1.7-.1 1.1-.1.1 0 .4-.1.5-.1-.1.1 0 .4 0 .5zm18.1 7.5c0 .1-.1.2-.4.2-.1 0-.2 0-.5.1-.5.1-.6.4-.7 1.1V98c0 2.3-.1 4.9-1.7 6.3-1.3 1.2-2.7 1.5-3.9 1.5-1 0-2.8-.1-4.3-1.5-1-1-1.7-2.6-1.7-5.6v-3-4.4c-.1-.7-.2-1-.7-1.1-.1-.1-.5-.1-.7-.1s-.4-.1-.4-.2.1-.1.5-.1c1 0 2.2.1 2.7.1s1.7-.1 2.3-.1c.2 0 .5.1.5.1 0 .1-.1.2-.4.2-.1 0-.2 0-.5.1-.5.1-.6.4-.6 1.1-.1.6-.1 1.2-.1 4.4v2.9c0 2.9.5 4.3 1.5 5 .7.7 1.7.9 2.3.9.7 0 1.7-.2 2.4-1.1 1.1-1.1 1.1-2.9 1.1-5.1v-2.7-4.4c-.1-.7-.2-1-.7-1.1-.1-.1-.5-.1-.7-.1-.1 0-.2-.1-.2-.2s.1-.1.4-.1c1 0 2.2.1 2.2.1.1 0 1.5-.1 2.3 0-.2-.2 0-.1 0 0zm28.6-.2c-.9 0-1.6.1-1.8.1-.4 0-1.3-.1-2.3-.1-.4 0-.5 0-.5.1s.1.2.4.2c.1 0 .7 0 1 .1.5.2.6.6.6 1.8l.1 9.4h-.1c-.2-.4-2.7-3.3-3.9-4.7-2.7-3-5.5-6.5-5.7-6.7-.4-.4-.6-.7-.7-.7-.2 0-.4.2-.4.7l-.2 12.5c0 1.7-.1 2.3-.5 2.6h-.5c-.2-.1-1-.1-1.9-1.5-1.1-1.3-2.4-3.2-4.1-5.5 1.8-1.7 2.7-3 2.7-4.6 0-1.5-.7-2.4-1.3-2.9-.9-.6-2.1-.7-3-.9h-.5c-.6 0-2.3.1-2.9.1-.4 0-1.6-.1-2.6-.1-.2 0-.4.1-.4.1 0 .1.1.2.2.2.2 0 .6 0 .7.1.5.1.7.4.7 1.1V99.1c0 1.9 0 3.7-.1 4.5-.1.6-.1 1.1-.5 1.1-.1 0-.5.1-.7.1-.1 0-.2.1-.2.1 0 .1.1.2.4.2.7 0 1.9-.1 2.3-.1.2 0 1.7.1 2.9.1.1 0 .4-.1.4-.2s-.1-.1-.2-.1-.6-.1-.9-.1c-.5-.1-.6-.5-.7-1.1-.1-.9-.1-2.4-.1-4.5V99c0-.1 0-.1.1-.1l1.7.1h.2l.1.1c.2.4 1.1 1.7 1.7 2.9 1.1 1.6 1.7 2.7 2.6 3 .5.2 1 .5 2.1.5h1.7c.6 0 1.2-.1 1.3-.1.4 0 1.2.1 2.4.1.1 0 .4-.1.4-.2s-.1-.1-.2-.1c-.4 0-.7-.1-1-.1-.4-.1-.6-.6-.6-2.3l-.2-8.5h.1c.4.4 2.3 2.9 4.3 5.1 1.9 2.2 4.3 4.7 5.5 6 .1.2.5.5.7.5.1 0 .4-.2.4-.7l.1-13.3c0-1.1.1-1.5.7-1.7.1-.1.4-.1.5-.1.2 0 .4-.1.4-.2-.2-.3-.4-.3-.7-.3zm-21.6 7.9c-.1.2-.5.4-.7.4h-.5c-.5 0-1.1 0-1.5-.1-.1-.1-.1-.1-.1-.4v-6.2c0-.1 0-.2.1-.4.1 0 .6-.1 1.1-.1.2 0 .5.1.7.1 1 .2 2.1 1.2 2.1 3.7 0 1.7-.6 2.5-1.2 3zm28.6 7.7c0 .1-.1.2-.4.2-1.2 0-2.6-.1-2.9-.1-.4 0-1.7.1-2.4.1-.2 0-.4-.1-.4-.2s.1-.1.2-.1c.4 0 .5-.1.7-.1.4-.1.5-.5.5-1.1.1-.9.1-2.6.1-4.5v-3.7-4.4c-.1-.7-.2-1-.6-1.1-.2-.1-.5-.1-.7-.1-.1 0-.2-.1-.2-.2s.1-.1.5-.1c.6 0 1.9.1 2.4.1s1.7-.1 2.3-.1c.1 0 .4.1.4.1 0 .1-.1.2-.2.2s-.4 0-.5.1c-.5.1-.7.4-.7 1.1-.1.6-.1 1.2-.1 4.4v3.7c0 2.1 0 3.7.1 4.6.1.5.1.9.7 1 .1 0 .6.1.9.1s.3.1.3.1zm13.7-15.4v2.6c-.1.2-.1.4-.1.4-.1 0-.1-.1-.2-.4v-.2c0-.5-.5-1.1-2.2-1.2h-2.2v12.9c.1.6.1 1.1.7 1.1.2 0 .7.1 1 .1.1 0 .2.1.2.1 0 .1-.1.2-.4.2-1.2 0-2.3-.1-2.9-.1-.5 0-1.7.1-2.4.1-.1 0-.4-.1-.4-.2s.1-.1.4-.1c.2 0 .5-.1.6-.1.5-.1.5-.5.5-1.1.1-.9.1-2.6.1-4.5V91l-2.7.1c-1.1 0-1.5.1-1.7.6-.1.2-.2.5-.4.7 0 .1-.1.2-.1.2-.1 0-.1-.1-.1-.4 0-.4.4-2.3.4-2.6.1-.2.1-.4.2-.4s.4.1.7.2c.5 0 1.2.1 1.8.1h7.3c.6 0 1.1-.1 1.3-.1.2-.1.5-.1.5-.1.1.2.1.3.1.5zm15.8 0c0 .1-.1.2-.4.2-.1 0-.4 0-.5.1-.5.1-.6.4-.7 1.1V98c0 2.3-.2 4.9-1.8 6.3-1.2 1.2-2.7 1.5-3.9 1.5-1 0-2.9-.1-4.3-1.5-1-1-1.7-2.6-1.7-5.6v-3c0-3.2 0-3.8-.1-4.4 0-.7-.1-1-.7-1.1-.1-.1-.5-.1-.7-.1-.1 0-.2-.1-.2-.2s.1-.1.4-.1c1 0 2.3.1 2.8.1s1.7-.1 2.3-.1c.2 0 .4.1.4.1 0 .1-.1.2-.2.2s-.4 0-.5.1c-.5.1-.6.4-.7 1.1V98.6c0 2.9.5 4.3 1.5 5 .7.7 1.7.9 2.3.9.7 0 1.7-.2 2.6-1.1 1-1.1 1.1-2.9 1.1-5.1v-2.7c0-3.2-.1-3.8-.1-4.4 0-.7-.1-1-.7-1.1-.1-.1-.5-.1-.6-.1-.2 0-.4-.1-.4-.2s.1-.1.4-.1c1 0 2.2.1 2.3.1s1.5-.1 2.1 0c-.2-.2 0-.1 0 0zm25.2 12.3c-.1 0-.1.1-.1.4-.1.9-.4 1.3-.7 1.5-.5.2-1.3.4-1.7.4-1.9 0-2.4-.4-2.6-1.7v-4.9c0-.1.1-.1.1-.1.5 0 2.6 0 2.9.1.6.1.9.4 1 .7.1.2.1.5.1.7 0 .1 0 .1.1.1s.1-.4.1-.5.1-1 .1-1.5c.1-1.1.1-1.5.1-1.5 0-.1-.1-.2-.1-.2-.1 0-.1.1-.2.2-.1.2-.5.2-.9.4-.5.1-2.8.1-3.3.1-.1 0-.1-.1-.1-.2V91c0-.1.1-.1.1-.1.4 0 2.6 0 2.9.1.9.1 1.1.4 1.2.7.1.1.1.6.1.7s0 .2.1.2.1-.1.1-.2c.1-.2.1-1.2.1-1.5.1-1 .1-1.2.1-1.5 0-.1 0-.1-.1-.1s-.2.1-.4.1c-.1.1-.5.1-.7.1h-5c-.5 0-1.7-.1-2.7-.1-.4 0-.5.1-.5.1 0 .1.1.2.2.2.2 0 .6 0 .7.1.5.1.7.4.7 1.1V99c0 1.9 0 3.7-.1 4.5-.1.6-.1 1.1-.5 1.1-.1 0-.4.1-.7.1-.1 0-.1 0-.2.1 0 0-.1-.1-.2-.1s-.2 0-.5-.1c-.2-.1-1-.1-1.9-1.5-1.1-1.3-2.4-3.2-4.1-5.5 1.8-1.7 2.7-3 2.7-4.6 0-1.5-.7-2.4-1.3-2.9-.9-.6-2.1-.7-3-.9h-.5c-.6 0-2.3.1-2.9.1-.4 0-1.6-.1-2.6-.1-.2 0-.4.1-.4.1 0 .1.1.2.2.2.2 0 .6 0 .7.1.5.1.7.4.7 1.1V98.8c0 1.9 0 3.7-.1 4.5-.1.6-.1 1.1-.5 1.1-.1 0-.5.1-.7.1-.1 0-.2.1-.2.1 0 .1.1.2.4.2.7 0 1.9-.1 2.3-.1.2 0 1.7.1 2.9.1.1 0 .4-.1.4-.2s-.1-.1-.2-.1-.6-.1-.9-.1c-.5-.1-.6-.5-.7-1.1-.1-.9-.1-2.4-.1-4.5v-.2c0-.1 0-.1.1-.1l1.7.1h.2l.1.1c.2.4 1.1 1.7 1.7 2.9 1.1 1.6 1.7 2.7 2.6 3 .5.2 1 .5 2.1.5h1.7c.1 0 .2-.1.4-.2 0 .1.1.2.4.2.4 0 .9-.1 1.3-.1h3.2c.9.1 2.1.1 3.4.1.7 0 .9 0 1-.5s.2-1.8.2-2.3c.4.1.4-.2.2-.2zm-16.9-4.6c-.1.2-.5.4-.7.4h-.5c-.5 0-1.1 0-1.5-.1-.1-.1-.1-.1-.1-.4v-6.2c0-.1 0-.2.1-.4.1 0 .6-.1 1.1-.1.2 0 .5.1.7.1 1 .2 2.1 1.2 2.1 3.7 0 1.7-.6 2.5-1.2 3zm52.7 7.6c-.2 0-.5-.1-.7-.1-.4-.1-.9-.4-1.6-2.3-1.2-3.2-4.3-11.7-4.7-12.9-.1-.5-.2-.7-.5-.7-.1 0-.4.2-.5.7v.1l-4.9 13.1c-.5 1.1-.7 1.7-1.6 1.8-.1 0-.4.1-.5.1s-.1.1-.1.1c0 .1.1.2.2.2 1 0 2.1-.1 2.2-.1.6 0 1.5.1 2.1.1.1 0 .4-.1.4-.2s-.1-.1-.2-.1h-.4c-.5 0-.7-.2-.7-.6 0-.2.1-.7.2-1.3l1-2.8.1-.1h4.4c.1 0 .1 0 .1.1l1.5 4.3c.1.2 0 .5-.1.5s-.1.1-.1.1c0 .1.1.1.5.1 1.6.1 2.9.1 3.5.1.7 0 .9-.1.9-.2-.1.1-.2 0-.5 0zm-6.2-6.1h-3.4c-.1 0-.1 0-.1-.1l1.7-5.4.1-.1c.1 0 .1.1.1.1l1.6 5.5c.1 0 0 0 0 0zm11-7.3c-1.3 1.5-1.7 3.4-1.7 5.5 0 5 3.3 7.3 5.8 7.3 1.6 0 2.6-.1 3.3-1.1.4-.4.5-1 .6-1.5.1-.2.1-.5.2-.5s.1.2.1.5c0 .2-.1 2.1-.4 2.7-.1.5-.1.5-.5.6-.7.4-2.1.5-3.3.5-2.6 0-4.6-.6-6.3-2.3-1.8-1.8-2.3-4.3-2.3-6.2 0-1.5.4-3.9 2.1-5.7 1.3-1.5 3.2-2.2 5.8-2.2 1.1 0 1.8.1 2.7.1.6.1 1.2.2 1.8.4.1 0 .2.1.2.2s-.1.5-.1 1.1c-.1.7-.1 1.8-.1 2.3 0 .2-.1.5-.2.5s-.1-.1-.1-.5c0-.7-.2-1.5-.7-1.9-.6-.7-1.8-1.2-3.7-1.2-1.4.2-2.4.5-3.2 1.4zm21.9-2.2c.1 0 .1.1.1.5 0 .5-.1 2.1-.1 2.6 0 .2 0 .4-.1.4s-.1-.1-.1-.4v-.2c-.1-.5-.5-1.1-2.2-1.2h-2.3v8.4c0 1.9 0 3.7.1 4.5.1.6.1 1.1.7 1.1.1 0 .6.1.9.1s.4.1.4.1c0 .1-.1.2-.4.2-1.2 0-2.4-.1-2.9-.1s-1.7.1-2.4.1c-.2 0-.4-.1-.4-.2s.1-.1.2-.1c.4 0 .5-.1.7-.1.4-.1.5-.5.5-1.1.1-.9.1-2.6.1-4.5v-8.4l-2.7.1c-1.1 0-1.6.1-1.8.6-.1.2-.2.5-.2.7-.1.1-.1.2-.2.2s-.1-.1-.1-.4c0-.4.4-2.3.5-2.6 0-.2.1-.4.1-.4.1 0 .4.1.7.2.6 0 1.3.1 1.9.1h7.4c.6 0 1-.1 1.2-.1.2-.1.4-.1.4-.1zm9-.1c-5.6 0-7.8 4.6-7.8 8.2 0 3.8 2.2 8.3 7.7 8.3h.1c4.6-.1 7.7-3.8 7.7-8.6s-3-7.9-7.7-7.9zm.6 15.2c-.1 0-.5 0-.6-.1-3.2-.4-4.9-3.7-4.9-7.7 0-5.1 2.3-6.5 4.4-6.5.1 0 .4 0 .5.1 2.7.2 4.9 3 4.9 7.4-.1 6-3 6.8-4.3 6.8zm23 .5c-.1 0-.1 0-.5-.1-.2-.1-.9-.1-1.9-1.5-1.1-1.3-2.4-3.2-4-5.5 1.7-1.7 2.6-3 2.6-4.6 0-1.5-.7-2.4-1.3-2.9-.9-.6-2.1-.7-3-.9h-.5c-.5 0-2.3.1-2.9.1-.4 0-1.5-.1-2.4-.1-.4 0-.5.1-.5.1 0 .1.1.2.2.2.4 0 .6 0 .7.1.5.1.7.4.7 1.1V99.2c0 1.9 0 3.7-.1 4.5-.1.6-.1 1.1-.5 1.1-.1 0-.4.1-.6.1s-.4.1-.4.1c0 .1.1.2.4.2.7 0 1.9-.1 2.3-.1.2 0 1.8.1 2.9.1.1 0 .4-.1.4-.2s-.1-.1-.1-.1c-.2 0-.7-.1-1-.1-.5-.1-.6-.5-.7-1.1-.1-.9-.1-2.4-.1-4.5V99c0-.1.1-.1.1-.1l1.6.1h.2c.1 0 .1.1.1.1.2.4 1.1 1.7 1.7 2.9 1.1 1.6 1.7 2.7 2.6 3 .5.2 1 .5 2.1.5h1.7c.2 0 .4-.1.4-.2s0-.2-.2-.2zm-7.3-7.6c-.2.2-.5.4-.9.4h-.5c-.5 0-1.1 0-1.5-.1-.1-.1-.1-.1-.1-.4v-6.2c0-.1 0-.2.1-.4.1 0 .6-.1 1.1-.1.2 0 .5.1.7.1 1 .2 2.1 1.2 2.1 3.7.1 1.7-.5 2.5-1 3zm19.1-7.7c0 .1-.1.2-.4.2-.1 0-.5.1-.7.2-.5.1-.5.4-1 1-.6.7-3.3 5.8-3.7 6.7-.2.7-.2 1.5-.2 2.1v1.7c0 .4 0 1.2.1 2.1 0 .6.1 1.1.7 1.1.2 0 .6.1.9.1.1 0 .4.1.4.1 0 .1-.1.2-.5.2-1.1 0-2.3-.1-2.9-.1-.5 0-1.7.1-2.3.1-.2 0-.5-.1-.5-.2s.1-.1.4-.1.5-.1.6-.1c.4-.1.5-.5.6-1.1V100c0-1.1-.1-1.6-.5-2.2-.1-.4-2.7-5-3.3-6.1-.5-.7-.9-1.3-1.2-1.5-.1-.1-.5-.2-.7-.2-.1 0-.2-.1-.2-.2s.1-.1.4-.1c.4 0 1.7.1 2.3.1.4 0 1.2-.1 2.1-.1.1 0 .2.1.2.1 0 .1-.1.1-.5.2-.1.1-.2.1-.2.4 0 .1.1.5.2.7.4.7 2.7 5.5 3 6.1.1-.5 2.4-5 2.7-5.6.1-.5.2-.7.2-1.1 0-.1-.1-.4-.4-.5-.1 0-.4-.1-.4-.2s.1-.1.2-.1c.6 0 1.3.1 1.8.1.4 0 1.6-.1 1.9-.1.8-.1.9 0 .9.1zm-86.7-7.5c0 .2-.1.6-.1 1.5 0 .4-.1 2.1-.1 2.4 0 .2-.1.5-.2.5s-.2-.1-.2-.5c0-.2 0-.7-.1-1.2-.1-.4-.7-.9-1.8-.9l-4.3-.1c-.1 0-.2.1-.2.5v7.7c0 .1.1.4.1.4l3.7-.1h1.2c.5-.1.9-.1 1.1-.5.1-.2.1-.4.4-.4s.1.1.1.2-.1 1-.1 1.9c-.1.6-.1 2.1-.1 2.2 0 .4 0 .6-.2.6-.1 0-.1-.1-.1-.5 0-.1-.1-.5-.1-1-.1-.5-.5-1-1.5-1.1-.7-.1-3.7-.1-4.1-.1-.1 0-.1 0-.1.2v2.4c0 2.9 0 5.2.1 6.6.1.9.2 1.6 1.1 1.7.4.1 1 .1 1.5.1.4 0 .5.1.5.2 0 .2-.1.4-.6.4-1.7 0-3.4-.1-4.3-.1-.7 0-2.4.1-3.4.1-.5 0-.6-.1-.6-.4 0-.1.1-.2.5-.2s.7 0 1-.1c.5-.1.7-.7.7-1.7.1-1.3.1-3.7.1-6.6V91c0-4.7 0-5.5-.1-6.6s-.2-1.5-1.2-1.7c-.1 0-.6-.1-1.1-.1-.2 0-.5 0-.5-.1 0-.2.1-.4.6-.4h2.3c.7.1 1.3.1 1.7.1h7.3c.5-.1.9-.1 1.1-.1.1 0 .4-.1.5-.1-.6-.1-.5.2-.5.3z"/><linearGradient id="SVGID_1_" x1="309" x2="-3.451" y1="590.4" y2="590.4" gradientTransform="translate(0 -496)" gradientUnits="userSpaceOnUse"><stop offset="0" stop-color="#fff"/><stop offset=".13" stop-color="#f9e195"/><stop offset=".51" stop-color="#f9e195"/><stop offset=".86" stop-color="#f9e195"/><stop offset="1" stop-color="#fff"/></linearGradient><path fill="url(#SVGID_1_)" d="M309 68.8v1.3H.6v-1.3H309zM.6 120H309v-1.3H.6v1.3z"/><path d="M233.1 26.7s-.5-5.5-.5-6.8-1.1-4.5-1.1-4.5c1.1-.6 1.6-2.7 1.1-3.7l-2.8 2.4-2.2-.1c.1-.6.1-1.2-.1-1.8-.7.7-1.7 1.5-2.4 2.1-8.6.7-16.4 10-22.6 11.9-2.9 1-16.8-.7-21.3.1-2.1.4-3.3 1.2-4.1 1.9L144.8 24V6.5h1.6V4.4h2.2V2.7h-2.2V.6H89.7v2.1h-2.1v1.7h2.1v2.1h1.7v29.8c-1.1-.2-2.2-.4-3.3-.4-9.2 0-16.7 7.4-16.7 16.7 0 9.1 7.4 16.6 16.7 16.6 8.6 0 15.8-6.6 16.6-15.1l23.4.7c.1 7.9 6.6 14.4 14.6 14.4 8.2 0 14.6-6.6 14.6-14.6 0-5.4-2.8-10-7.1-12.5h17.3c-.5 3.3-.9 6.5-2.1 8 11.1-3.5 3.5-16.4 10.2-18.6-3.3 4.3-.5 10.2-2.7 13.8-1 1.5-3.8 4.5-3.8 4.5s-.1 1.7-1.1 4.5c-1 2.9-2.7 6.6-2.7 6.6s-.6 2.9-.7 4.3c-.1 1.3 1.2 2.7 1.2 2.7l.1 1.5h4.9l-1.5-2.4-1.3-.5-1.1-1.3s.7-4.4 1.5-5.2c.7-.9 1.9-2.6 2.8-3.8 1-1.2 1-2.3 2.1-3.8s4.6-3.3 4.6-3.3l-.6 2.7s1 .6 2.3 1.6c1.5.9 3.5 2.6 3.8 3.7.4 1.1 1.5.7 1.5.7v2.3h-1.5v4.4l.7-.1 1.7-1.3 1.3-1.1s.1-3.3.5-4.3c.4-1.1-.2-1.2-.2-1.2s-.9-.9-2.7-2.3c-1.8-1.6-2.9-3.2-2.9-3.2h1.6c1.5 0 3.3-1.6 6-2.9 2.7-1.5 9.5-1.5 12.7-1.5 3.2-.1 4.5.5 4.5.5s-1.1 1.5-1.5 4.4c-.2 2.8-1.3 9.1-2.7 10.2-1.3 1.1-.2 5.2-.2 5.2v2.9h5.5l-.9-2.7-2.1-.9s-.5-.7-.2-1.8c.1-1.1.2-2.1 1.5-3.4 1.2-1.3 1.5-3.3 1.5-3.3s0-.7 1.5-2.6c1.6-1.8 4.1-7.4 4.1-7.4s8.6 2.7 8.9 3.8c.4 1.2 2.3 2.4 2.3 2.4v7.2l-1.9-.1v5.1s.6.1 1.9 0c1.5-.1 2.9-3.2 2.9-5.1 0-1.8-.4-6.8-.4-7.9s.1-2.9-1.3-3.8c-1.5-1-6.5-4.3-6.5-4.3-2.6-2.8 2.3-7.8 4.6-15.9 1.3-.2 2.8-.7 4-1.3.7 1.1 1.5 2.3 1.5 2.7 0 .7 1.5 1.7 1.5 1.7l2.7.4s1.2-1.5 1.2-2.7c-.2-2-1.4-3.2-1.4-3.2zM92.5 52h-.7c0-.1-.1-.4-.1-.5l2.7-1.6h7.8c.1.7.2 1.3.2 2.1h-9.9zm46.7-2.2l1.3 2.4-.4.4-4.7-2.8h3.8zm2.9 1.7c-.1 0-.2.1-.5.1l-1-1.8h1.5v1.7zm-2.3-42.2V24.6H125.6V8.4h14.2v.9zM91.6 49.8l-.7.5-.4-.4.9-1.5v1.5l.2-.1c0 .1 0 0 0 0zm-4.1-.7c-.1 0-.4.1-.5.1L81.6 40c1.8-1 3.8-1.5 5.8-1.6l.1 10.7zM84.6 52H74c.1-2.1.6-4.1 1.6-5.8l9.2 5.4c-.2 0-.2.2-.2.4zm0 1.3c0 .1.1.4.1.5l-9.2 5.4c-1-1.7-1.5-3.8-1.6-5.8 0-.1 10.7-.1 10.7-.1zm2.9 3v10.6c-2.1-.1-4-.6-5.8-1.6l5.4-9.1c0-.1.2.1.4.1zm1.3 0c.1 0 .4-.1.5-.1l5.2 9.1c-1.7.9-3.7 1.5-5.7 1.6V56.3zm15.7-6.5h24.3c-.4 1.1-.6 2.3-.7 3.5l-23.4-.9c.1-.9 0-1.7-.2-2.6zm26.7 0h2.1l6.6 3.8c0 .1 0 .1-.1.2l-9.4-.4c-.1-1.2.3-2.4.8-3.6zm8.4 5.5c0 .1.1.2.1.4l-8.2 4.6c-.7-1.6-1.2-3.3-1.3-5h9.4zm2.5 2.5V67c-1.8-.1-3.5-.6-5.1-1.3l4.6-8c.2 0 .4.1.5.1zm1.3 0c.1 0 .4-.1.5-.1l4.6 8c-1.6.7-3.3 1.2-5.1 1.3v-9.2zm2.5-2.5h9.4c-.1 1.8-.6 3.5-1.3 5l-8-4.6c-.2-.2-.1-.3-.1-.4zm0-1.2c0-.1-.1-.2-.1-.4l8-4.7c.7 1.6 1.2 3.3 1.3 5.1h-9.2zm-2.5-2.6v-1.6h1.6l-1 1.8c-.3-.2-.5-.2-.6-.2zm1.5-9.2c1.2.2 2.4.6 3.5 1.2l-3.5 6.3v-7.5zm-53.5 3.4l-2.1 3.5c-.1-.1-.4-.1-.5-.1V38.5c.9 0 1.7.1 2.6.4v6.8zm-11-5l5.2 9.2-.4.4-9.2-5.4c1.3-1.7 2.7-3.1 4.4-4.2zm-4.2 19.6l9.2-5.2.4.4-5.2 9.2c-1.9-1.3-3.3-2.7-4.4-4.4zm19.7 4.2l-5.4-9.1.4-.4 9.2 5.2c-1 1.8-2.5 3.2-4.2 4.3zm4.9-5.3l-9.2-5.4v-.1l10.7.4c-.2 1.8-.7 3.5-1.5 5.1zm31.4 2.2l8.2-4.6.4.4-4.7 8c-1.6-1-3-2.4-3.9-3.8zm17.4 3.7l-4.6-8 .4-.4 8 4.6c-1 1.5-2.4 2.9-3.8 3.8zm3.7-17.2l-8.2 4.7-.4-.4 4.6-8.2c1.7 1.1 3.1 2.4 4 3.9zm14.5-7.6h-21.9c-.4-.1-.6-.1-1-.1V25.7l30.9 4.1c-.1.1-.1.2-.1.2-5.8-.4-7.1 5-7.9 10.3zm55.9-12.5c.2-.9.5-1.8.6-2.8 0 0 .5 0 1.5.5.4.1.9.6 1.3 1.3-1.1.5-2.2.9-3.4 1zm-83.4-4.2h-5.7v.2h-4V25h-3.8V13.3h1.8c-.7-1.7-.5-3 .1-3.9h4c.5.5 1 1.2 1.2 2.2 1.5 1.5 1.1 2.7-1.2 2.2l-.5 2.2-1.9-.4v6.2h4.3v.7h5.7v1.1z" class="st2"/><path fill="#efd171" d="M142.5 53.6l-.1 1.2-54.9-1.6v-1.9l55 2.3z"/><path fill="#e2c564" d="M133.4 5.5h11v43.9h-11V25.1h7.1V8.8h-7.1V5.5zm-42.6 0h42.6v3.3h-7.1v16.3h7.1v24.2H90.8V5.5z"/><path fill="#b77925" d="M102.2 46.6h28v2.8h-28z"/><path d="M126.3 8.8h14v.7h-14z" class="st2"/><path fill="#c3713a" d="M88.7 52.2c0 .6-.5 1.1-1.1 1.1s-1.1-.5-1.1-1.1.5-1.1 1.1-1.1c.5-.1 1.1.5 1.1 1.1zm53.6 1c-.5 0-1.1.5-1.1 1s.5 1 1.1 1 1-.5 1-1-.5-1-1-1z"/><path fill="#f9e195" d="M140.3 23.2h-6.2v.2H130v1.7h-3.7V12.7h1.7c-.7-1.7-.5-3 .1-3.9h4c.5.5.9 1.2 1.1 2.2 1.5 1.5 1.2 2.7-1.1 2.2l-.5 2.1-1.9-.4v6.3h4.3v.6h6.2l.1 1.4zM89.2 3.9H87V2.2h2.2V.1H146v2.1h2.1v1.7H146V6H89.2V3.9zm145.1 24.8c0 1.2-1.2 2.7-1.2 2.7l-2.7-.4s-1.5-.9-1.5-1.6c0-.3-.5-1.4-1.2-2.4-1.4.6-2.9 1.1-4.4 1.3-2.3 8-7 12.9-4.6 15.7 0 0 5 3.3 6.5 4.3 1.6.9 1.5 2.7 1.5 3.8 0 1.1.2 6.1.2 7.9 0 1.9-1.5 5-2.8 5.1-1.5.1-2.1 0-2.1 0V60l2.2.1v-7.2s-2.1-1.2-2.3-2.4c-.3-1.1-8.9-3.8-8.9-3.8s-2.5 5.6-4 7.4c-1.5 1.9-1.5 2.6-1.5 2.6s-.4 2-1.6 3.3c-1.1 1.3-1.4 2.4-1.5 3.5-.1 1 .4 1.7.4 1.7l1.9.9.9 2.7h-5.5v-2.9s-1.1-4.1.4-5.2c1.2-1 2.3-7.4 2.7-10.2.2-2.9 1.3-4.4 1.3-4.4s-1.3-.6-4.5-.5c-3.2 0-10 0-12.7 1.5-2.6 1.3-4.5 2.9-5.8 2.9h-1.7s1.2 1.7 2.9 3.2c1.8 1.4 2.7 2.3 2.7 2.3s.6.1.4 1.2c-.4 1-.5 4.3-.5 4.3l-1.5 1.1-1.7 1.5-.7.1v-4.4h1.5v-2.2s-1.3.4-1.5-.7c-.4-1.1-2.5-2.8-3.8-3.7-1.4-1-2.3-1.6-2.3-1.6l.6-2.7s-3.6 1.8-4.7 3.3c-1 1.5-1 2.7-1.9 3.8-.8 1.2-2.2 2.9-2.9 3.8-.8.8-1.5 5.2-1.5 5.2l1.1 1.3 1.3.5 1.5 2.4h-4.9l-.1-1.5s-1.3-1.5-1.2-2.7c.1-1.3.7-4.3.7-4.3s1.8-3.7 2.7-6.6c1-2.8 1.1-4.5 1.1-4.5s2.9-3 3.8-4.5c2.3-3.6-.5-9.5 2.7-13.8-6.5 2.2 1 15.1-10.2 18.6 1.2-1.5 1.6-4.7 2.1-8h-18.3c4.5 2.5 7.5 7.3 7.7 12.8 0 8-6.6 14.6-14.6 14.6s-14.6-6.6-14.6-14.6c0-2.1.5-4.1 1.3-5.9h-25.3c.3 1.3.5 2.6.5 4 0 9.2-7.5 16.6-16.7 16.6s-16.6-7.5-16.6-16.6c0-9.3 7.5-16.6 16.6-16.6 5.7 0 10.8 2.8 13.8 7.2h31.8c2.5-2.1 5.7-3.3 9.2-3.3.8 0 1.6.1 2.4.2v-.1h23c.7-5.3 2.2-10.7 8-10.2 0 0 0-.1.1-.2L144 25l.2-1.6 32.6 4.4c.8-.7 2-1.4 4.1-1.9 4.4-.8 18.4.9 21.2-.1 6-1.9 13.8-11.2 22.6-11.8.7-.7 1.6-1.5 2.3-2.2.2.6.2 1.2.1 1.8l2.1.1 2.9-2.4c.5 1-.1 3.1-1.2 3.7 0 0 1.2 3.2 1.2 4.5s.5 6.8.5 6.8 1.2 1.1 1.7 2.4zM75.6 44.4l9.2 5.4.4-.4-5.4-9.2c-1.7 1.1-3.1 2.5-4.2 4.2zm-2.2 7.1H84c0-.2 0-.4.2-.4L75 45.7c-1 1.8-1.5 3.7-1.6 5.8zm1.5 7.3l9.2-5.5c0-.1-.1-.4-.1-.5v.2H73.3c.1 2 .6 4 1.6 5.8zm4.8 5.2l5.3-9-.4-.4-9.2 5.2c1.1 1.8 2.7 3.3 4.3 4.2zm7.1-8.2c-.2 0-.3 0-.6-.1L81 64.9c1.8.9 3.7 1.4 5.8 1.5V55.8zm0-7.2l-.1-10.7c-2 .1-4.1.7-5.8 1.6l5.4 9.2c.1 0 .4-.1.5-.1zm8.3-8.3l-5.2 9.2.4.4 9.2-5.4c-1-1.8-2.5-3.2-4.4-4.2zm-6.9 8.3c.1 0 .4.1.4.2l5.4-9.2c-1.7-1-3.7-1.5-5.8-1.6v10.6zm5.9 16.2l-5.4-9.1c-.1 0-.4.1-.5.1l.1 10.6c2-.1 4-.7 5.8-1.6zm5.4-5l-9.2-5.2-.4.4 5.4 9.2c1.7-1.1 3.2-2.6 4.2-4.4zm2.2-7H91.1c0 .3-.1.4-.2.4l9.2 5.4c1-1.7 1.5-3.7 1.6-5.8zm.1-1.3c-.1-2-.7-4-1.6-5.7L91 51c0 .1.1.4.1.5h10.7zm37.8.7l.4-.4-4.7-8.2c-1.4 1-2.8 2.3-3.9 3.9l8.2 4.7zm-8.7-3.7c-.7 1.4-1.2 3.3-1.3 5.1h9.4c.1-.1.1-.3.1-.4l-8.2-4.7zm0 11.4l8.2-4.6c0-.3-.1-.4-.1-.5h-9.4c0 1.8.4 3.5 1.3 5.1zm4.6 4.8l4.7-8-.4-.4-8.2 4.6c.9 1.6 2.3 2.9 3.9 3.8zm6-7.3c-.1 0-.2 0-.5.1l-4.6 8c1.4.7 3.3 1.2 5.1 1.3v-9.4zm0-6.4l-.1-9.4c-1.8 0-3.5.4-5.1 1.3l4.7 8.2c.3 0 .4-.1.5-.1zm1.4 0c.1 0 .2.1.4.3l4.7-8.2c-1.4-.9-3.3-1.4-5.1-1.5V51zm5.2 14.3l-4.7-8c-.3 0-.4.1-.5.1l.1 9.4c1.8-.2 3.5-.6 5.1-1.5zm4.6-4.4l-8-4.6-.4.4 4.7 8c1.5-1 2.8-2.4 3.7-3.8zm1.9-6.1h-9.2c-.1.1-.1.4-.1.4l8 4.6c.7-1.5 1.2-3.2 1.3-5zm-1.3-6.3l-8 4.6c0 .3.1.4.1.5h9.2c-.1-1.8-.6-3.5-1.3-5.1zm-4.3-5l-4.7 8.2.4.4 8-4.6c-.9-1.6-2.2-2.8-3.7-4zm77.7-16.7c-.5-.7-1.1-1.5-1.6-1.6-1-.5-1.5-.5-1.5-.5-.1 1.1-.4 2-.6 3 1.3-.2 2.6-.5 3.7-.9zM125 34.5l.1-27.7H92.5v27.7H125z"/><path fill="#a45b17" d="M111.4 14h8v6h-8v-6zm20.8 13.2v2.6h3.9v-2.6h-3.9z"/></svg>